<?xml version="1.0" standalone="no"?><!DOCTYPE svg PUBLIC "-//W3C//DTD SVG 1.1//EN" "http://www.w3.org/Graphics/SVG/1.1/DTD/svg11.dtd"><svg t="1714198382099" class="icon" viewBox="0 0 1024 1024" version="1.1" xmlns="http://www.w3.org/2000/svg" p-id="10428" xmlns:xlink="http://www.w3.org/1999/xlink" width="200" height="200"><path d="M512 512m-512 0a512 512 0 1 0 1024 0 512 512 0 1 0-1024 0Z" fill="#409EFF" p-id="10429" data-spm-anchor-id="a313x.search_index.0.i2.44c03a81MjRrW1" class="selected"></path><path d="M436.5056 758.570667c-57.856 6.613333-99.8656 45.457067-113.646933 64.0512-6.8864-24.789333-14.8736-85.546667 8.2688-130.176s174.9504-79.2064 247.953066-90.914134c-87.466667-19.285333-262.417067-79.761067-262.417066-167.3728 0-109.5168 146.705067-152.9088 243.822933-167.3728 77.696-11.5712 128.802133-46.148267 144.64-61.986133-1.373867 29.610667-18.602667 100.420267-76.458667 146.705067-57.856 46.2848-152.209067 64.7424-192.162133 68.189866 86.784 13.7728 259.9424 66.952533 258.286933 169.437867-2.065067 128.110933-185.966933 161.169067-258.286933 169.437867z" fill="#FFFFFF" p-id="10430"></path><path d="M608.008533 444.4928c-16.529067-9.915733-46.839467-20.667733-59.921066-24.797867 17.220267-6.1952 57.4464-21.486933 80.5888-33.058133 23.1424-11.5712 49.5872-42.018133 59.921066-55.790933 2.065067 15.1552 4.957867 52.48 0 80.5888-4.957867 28.100267-26.862933 54.408533-37.1968 64.0512-7.5776-6.1952-26.8544-21.077333-43.392-30.993067z" fill="#FFFFFF" p-id="10431"></path></svg>